<svg xmlns="http://www.w3.org/2000/svg" viewBox="0 0 496 360" width="496" height="360" role="img" aria-labelledby="t d">
<title id="t">Criss-cross merge: `main` and `side` each merged the other, leaving two best merge bases. Viewed 2026-09-17T15:00:00-04:00.</title>
<desc id="d">6 visible commits of 7 reachable. Parents are drawn below children.</desc>
<style>
      svg { background: #fbfaf7; font: 12px system-ui, sans-serif; }
      .edge { fill: none; stroke: #4a5a4f; stroke-width: 2; }
      .edge.collapsed { stroke-dasharray: 2 5; stroke-linecap: round; stroke-width: 2.5; }
      .tail { stroke: #4a5a4f; stroke-width: 2; stroke-dasharray: 2 5; stroke-linecap: round; }
      .tail.boundary { stroke-dasharray: none; stroke: #9a3b2a; }
      .node { stroke: #1f2a22; stroke-width: 1.5; }
      .node.head { fill: #2f7d4f; } .node.recent { fill: #7fb08a; }
      .node.ancestor, .node.other { fill: #fbfaf7; }
      .ring { fill: none; stroke: #2f7d4f; stroke-width: 1.5; }
      .worktree { fill: #c28a2c; stroke: #1f2a22; }
      .boundary { fill: none; stroke: #9a3b2a; stroke-width: 1.5; }
      .hidden-count { fill: #4a5a4f; font-size: 10px; }
      .badge rect { fill: #fbfaf7; stroke: #4a5a4f; stroke-dasharray: 2 2; }
      .badge text { fill: #1f2a22; font-size: 9px; text-anchor: middle; }
      .refs { fill: #1f2a22; font-weight: 600; } .subject { fill: #4a5a4f; }
      .legend { fill: #4a5a4f; }
    </style>
<path class="edge direct" d="M24 96 C24 150 52 150 52 204"/>
<path class="edge direct" d="M24 96 L24 168"/>
<path class="edge direct" d="M24 24 L24 96"/>
<path class="edge direct" d="M52 132 L52 204"/>
<path class="edge direct" d="M52 132 C52 150 24 150 24 168"/>
<path class="edge direct" d="M52 60 L52 132"/>
<line class="tail" x1="52" y1="204" x2="52" y2="232.8"/>
<text class="hidden-count" x="58" y="232.8">older history: 1 hidden</text>
<line class="tail" x1="24" y1="168" x2="24" y2="196.8"/>
<text class="hidden-count" x="30" y="196.8">older history: 1 hidden</text>
<g class="commit" data-oid="9de01a6467e62ff84239f035a25ac89dfc6a8ae3"><title>9de01a6467e62ff84239f035a25ac89dfc6a8ae3
Edge the daffodils
Included as: head, recent</title>
<circle class="node head" cx="24" cy="24" r="7"/><circle class="ring" cx="24" cy="24" r="10"/>
<text x="90" y="28">
<tspan class="refs">side </tspan>
<tspan class="subject">9de01a6 Edge the daffodils</tspan></text></g>
<g class="commit" data-oid="e2a8e8956a436e93435939d471eaf2aa25ac94a4"><title>e2a8e8956a436e93435939d471eaf2aa25ac94a4
Edge the tulips
Included as: head, recent, worktree</title>
<circle class="node head" cx="52" cy="60" r="7"/><circle class="ring" cx="52" cy="60" r="10"/><rect class="worktree" x="60" y="48" width="7" height="7"/>
<text x="90" y="64">
<tspan class="refs">main </tspan>
<tspan class="subject">e2a8e89 Edge the tulips</tspan></text></g>
<g class="commit" data-oid="234f9bf409d73a8b452baa8ead1b2b74ead55fbe"><title>234f9bf409d73a8b452baa8ead1b2b74ead55fbe
Merge branch &apos;main&apos; into side
Included as: recent</title>
<circle class="node recent" cx="24" cy="96" r="5"/>
<text x="90" y="100">

<tspan class="subject">234f9bf Merge branch &apos;main&apos; into side</tspan></text></g>
<g class="commit" data-oid="d0f9242a9cd8c9997eb9c09a68bca7b11dd965da"><title>d0f9242a9cd8c9997eb9c09a68bca7b11dd965da
Merge branch &apos;side&apos;
Included as: recent</title>
<circle class="node recent" cx="52" cy="132" r="5"/>
<text x="90" y="136">

<tspan class="subject">d0f9242 Merge branch &apos;side&apos;</tspan></text></g>
<g class="commit" data-oid="f495cef8025fb652a0a4eb97a832a5bd06b17a3d"><title>f495cef8025fb652a0a4eb97a832a5bd06b17a3d
Add daffodils
Included as: ancestor</title>
<path class="node ancestor" d="M24 161 L31 168 L24 175 L17 168 Z"/>
<text x="90" y="172">

<tspan class="subject">f495cef Add daffodils</tspan></text></g>
<g class="commit" data-oid="d191a4a4521296cfdf96aa66280cce3a2f1492a7"><title>d191a4a4521296cfdf96aa66280cce3a2f1492a7
Add tulips
Included as: ancestor</title>
<path class="node ancestor" d="M52 197 L59 204 L52 211 L45 204 Z"/>
<text x="90" y="208">

<tspan class="subject">d191a4a Add tulips</tspan></text></g>
<g class="legend" transform="translate(12 282)">
<text y="0">Older commits are lower. Legend:</text>
<circle class="node head" cx="8" cy="18" r="7"/><circle class="ring" cx="8" cy="18" r="10"/><text x="24" y="22">branch head</text>
<circle class="node recent" cx="118" cy="18" r="5"/><text x="130" y="22">recent commit</text>
<path class="node ancestor" d="M228 11 L235 18 L228 25 L221 18 Z"/><text x="242" y="22">common ancestor</text>
<rect class="worktree" x="350" y="14" width="7" height="7"/><text x="362" y="22">worktree HEAD</text>
<line class="edge" x1="0" y1="44" x2="30" y2="44"/><text x="38" y="48">parent</text>
<line class="edge collapsed" x1="100" y1="44" x2="130" y2="44"/><text x="138" y="48">hidden ancestry; badge = hidden commits (… = multiple paths)</text>
<line class="tail boundary" x1="100" y1="66" x2="130" y2="66"/><text x="138" y="70">missing history (shallow or unavailable)</text>
</g></svg>
